<?xml version="1.0" standalone="no"?>
<!DOCTYPE svg PUBLIC "-//W3C//DTD SVG 20010904//EN"
 "http://www.w3.org/TR/2001/REC-SVG-20010904/DTD/svg10.dtd">
<svg version="1.0" xmlns="http://www.w3.org/2000/svg"
 width="2000.000000pt" height="2000.000000pt" viewBox="0 0 2000.000000 2000.000000"
 preserveAspectRatio="xMidYMid meet">
<metadata>
Created by potrace 1.11, written by Peter Selinger 2001-2013
</metadata>
<g transform="translate(0.000000,2000.000000) scale(0.100000,-0.100000)"
fill="#000000" stroke="none">
<path d="M9871 15615 c-105 -37 -149 -59 -164 -83 -5 -7 -19 -17 -33 -22 -32
-13 -114 -120 -140 -185 -77 -189 -52 -414 68 -622 50 -86 56 -105 36 -120
-36 -27 -198 -54 -358 -60 -287 -10 -471 20 -890 143 -63 18 -186 61 -240 83
-25 11 -65 27 -90 37 -39 15 -75 30 -155 63 -11 5 -78 34 -150 64 -71 31 -142
59 -158 62 -15 4 -30 11 -33 16 -3 5 -13 9 -22 9 -9 0 -30 7 -46 15 -15 8 -33
15 -40 15 -6 0 -27 8 -46 19 -19 10 -51 22 -70 26 -19 4 -39 11 -45 15 -10 8
-55 20 -215 60 -338 85 -613 63 -890 -73 -116 -56 -192 -110 -269 -187 -59
-60 -171 -215 -171 -238 0 -5 -9 -30 -20 -55 -15 -33 -21 -70 -22 -134 -2 -94
10 -131 62 -201 24 -32 97 -82 121 -82 24 0 78 -51 108 -102 33 -58 99 -126
146 -151 108 -58 195 -75 195 -39 -1 9 -7 28 -15 42 -19 33 -19 119 0 183 23
81 78 144 162 188 189 100 399 92 705 -27 49 -19 90 -34 92 -34 5 0 123 -52
171 -75 54 -26 349 -147 385 -157 19 -6 40 -14 45 -18 6 -4 44 -18 85 -30 41
-12 93 -28 115 -35 215 -70 583 -124 760 -111 148 11 339 36 425 56 78 17 109
25 242 63 26 7 50 16 54 20 4 4 15 7 24 7 31 0 269 128 346 186 245 185 541
522 608 693 56 144 60 163 60 286 0 99 -4 130 -21 175 -50 127 -109 207 -201
268 -96 65 -132 75 -277 79 -127 3 -132 3 -234 -32z m218 -354 c47 -36 38
-160 -22 -281 -18 -36 -39 -66 -48 -68 -20 -4 -80 118 -99 200 -11 47 -11 65
0 104 11 40 19 49 53 64 43 20 72 15 116 -19z m-3352 -287 c8 -21 -16 -36 -45
-29 -12 3 -32 1 -43 -6 -20 -10 -20 -18 -17 -147 3 -131 2 -137 -17 -137 -19
0 -20 8 -23 135 -2 91 -7 137 -15 142 -7 4 -29 8 -49 8 -39 0 -53 12 -44 35 8
23 244 22 253 -1z m343 -69 c14 -7 40 -16 57 -20 42 -9 63 -39 63 -90 0 -42
-23 -74 -63 -88 -28 -10 -30 -30 -9 -93 12 -35 16 -63 11 -69 -16 -17 -48 28
-64 90 -10 38 -25 68 -41 83 -44 39 -69 27 -94 -49 -14 -40 -24 -55 -39 -57
-31 -5 -34 18 -12 79 11 30 31 93 46 141 14 48 31 89 38 91 17 7 77 -3 107
-18z m400 -152 c-1 -16 -8 -46 -16 -68 -8 -22 -27 -78 -41 -125 -14 -47 -29
-89 -33 -93 -12 -13 -50 2 -50 20 0 14 60 178 96 261 17 40 44 43 44 5z m303
-91 c16 -17 21 -37 48 -185 21 -112 48 -113 88 -4 12 32 28 72 37 89 14 27 17
29 31 15 14 -13 12 -24 -17 -103 -18 -49 -39 -103 -46 -121 -8 -17 -14 -38
-14 -46 0 -19 -33 -31 -59 -22 -24 7 -49 86 -63 194 -10 85 -13 91 -37 91 -19
0 -25 -11 -67 -119 -28 -73 -46 -93 -65 -74 -11 11 17 90 82 230 36 76 53 88
82 55z m482 -182 c13 -21 -63 -279 -91 -310 -12 -12 -16 -12 -29 1 -14 13 -10
30 34 156 27 78 52 146 55 152 9 14 23 14 31 1z m288 -75 c32 -8 70 -15 85
-15 42 0 72 -11 72 -26 0 -10 -12 -14 -38 -14 -59 0 -73 -16 -83 -96 -18 -141
-26 -176 -40 -185 -9 -5 -19 -4 -27 5 -10 10 -10 24 2 77 8 35 17 94 21 132
l7 67 -46 20 c-44 19 -54 29 -39 43 9 10 22 9 86 -8z m365 -87 c9 -17 29 -45
45 -62 31 -35 24 -39 87 52 29 40 70 58 70 29 0 -7 -26 -48 -57 -92 -54 -74
-58 -84 -61 -145 -2 -36 -8 -69 -13 -74 -18 -19 -33 13 -30 65 3 62 -9 94 -66
176 -24 34 -43 67 -43 72 0 6 11 11 25 11 19 0 31 -9 43 -32z"/>
<path d="M7004 14859 c-20 -26 -23 -59 -6 -79 21 -26 114 -39 137 -20 24 20
19 67 -10 86 -35 23 -108 30 -121 13z"/>
<path d="M13113 15190 c-12 -5 -50 -14 -85 -19 -112 -18 -350 -84 -433 -120
-11 -5 -47 -20 -80 -32 -33 -13 -64 -27 -69 -31 -6 -4 -16 -8 -24 -8 -13 0
-154 -58 -272 -112 -67 -30 -313 -126 -420 -163 -276 -95 -521 -153 -740 -176
-126 -13 -405 -3 -470 17 -74 23 -83 19 -141 -48 -29 -35 -110 -121 -182 -192
-119 -120 -128 -131 -118 -153 6 -13 18 -26 27 -30 9 -3 59 -32 110 -63 104
-64 207 -109 304 -135 36 -10 92 -26 125 -35 97 -29 159 -39 365 -60 195 -20
234 -20 455 1 100 9 292 44 330 59 11 4 72 22 135 39 131 37 255 81 355 127
17 7 59 25 95 38 36 13 121 49 190 79 69 30 157 67 195 81 39 15 82 34 97 42
14 8 36 14 48 14 12 0 36 6 53 14 61 28 202 48 294 43 89 -5 167 -19 200 -35
10 -5 36 -18 58 -28 22 -10 65 -44 97 -76 43 -43 59 -68 68 -105 21 -84 23
-148 6 -181 -18 -35 -21 -68 -6 -77 13 -8 95 17 152 48 73 39 132 92 158 143
28 54 83 110 117 119 71 17 153 94 168 158 4 15 11 30 16 33 17 10 10 152 -10
212 -44 130 -81 191 -170 285 -25 27 -47 53 -49 58 -2 5 -8 9 -14 9 -5 0 -24
14 -42 30 -38 36 -137 95 -226 134 -36 16 -69 32 -74 37 -6 5 -22 9 -38 9 -15
0 -42 6 -60 14 -79 33 -173 46 -323 45 -82 0 -160 -4 -172 -9z m384 -257 c4
-9 2 -71 -4 -137 -7 -76 -8 -125 -2 -131 5 -5 40 -17 77 -25 50 -12 68 -20 70
-34 4 -17 -1 -18 -75 -11 -43 4 -89 12 -103 19 -23 11 -25 16 -23 81 1 39 5
112 8 163 6 82 9 92 26 92 11 0 23 -8 26 -17z m-338 -31 c24 -19 43 -47 55
-82 17 -46 18 -58 7 -99 -30 -112 -161 -166 -263 -109 -59 33 -83 80 -82 156
2 54 6 69 31 100 61 75 181 91 252 34z m-546 -148 c45 -23 66 -44 88 -86 36
-71 16 -159 -48 -213 -29 -24 -47 -30 -98 -33 -77 -5 -123 14 -160 67 -35 52
-38 155 -5 201 48 68 155 98 223 64z m-485 -146 c6 -7 22 -44 36 -83 24 -65
33 -85 75 -172 12 -26 12 -34 2 -47 -22 -26 -30 -19 -64 52 -33 68 -60 87 -90
64 -7 -5 -30 -15 -52 -22 -72 -23 -78 -39 -49 -124 15 -44 15 -49 0 -64 -27
-27 -32 -17 -119 270 -22 73 25 62 52 -12 19 -51 42 -60 90 -36 16 9 38 16 47
16 21 0 64 38 64 56 0 8 -7 29 -16 48 -23 48 -5 88 24 54z m-483 -171 c28 -21
9 -37 -45 -37 -120 0 -171 -135 -85 -226 29 -30 38 -34 83 -34 40 0 57 6 81
26 18 15 38 24 47 20 42 -16 -42 -84 -114 -93 -46 -5 -56 -2 -100 26 -38 24
-55 44 -71 81 -28 64 -27 104 5 158 41 69 151 113 199 79z m-465 -66 c14 -4
26 -15 28 -25 4 -17 -1 -18 -67 -12 -88 9 -113 -2 -109 -46 2 -25 9 -33 33
-41 17 -5 44 -15 62 -23 17 -8 37 -14 44 -14 7 0 26 -12 41 -27 60 -58 15
-151 -76 -155 -85 -3 -166 20 -166 48 0 22 16 25 54 9 42 -18 137 -20 154 -3
35 35 1 82 -77 104 -31 9 -71 27 -88 41 -27 20 -33 31 -33 62 0 37 24 71 60
84 21 8 110 6 140 -2z"/>
<path d="M12987 14879 c-96 -50 -86 -187 16 -238 48 -23 48 -23 88 -5 110 49
119 182 17 244 -41 25 -72 25 -121 -1z"/>
<path d="M12459 14691 c-42 -37 -44 -41 -44 -93 1 -63 21 -96 77 -128 41 -23
75 -20 121 12 78 55 75 160 -6 222 -51 39 -94 35 -148 -13z"/>
<path d="M6630 14301 c-135 -34 -217 -101 -255 -210 -20 -59 -19 -79 7 -141
19 -47 28 -55 75 -76 56 -25 101 -30 131 -15 9 4 34 16 55 26 39 19 82 73 113
142 48 108 59 126 92 151 28 22 49 28 106 32 54 4 71 9 71 20 0 35 -178 91
-280 89 -27 -1 -79 -9 -115 -18z"/>
<path d="M13139 14306 c-90 -20 -170 -56 -167 -75 3 -12 18 -17 72 -19 99 -4
133 -33 195 -166 53 -112 85 -149 149 -177 108 -47 216 5 245 118 12 43 11 57
-3 100 -38 116 -121 183 -273 217 -79 19 -140 19 -218 2z"/>
<path d="M6945 14152 c-50 -16 -96 -72 -114 -137 -24 -87 -87 -156 -187 -202
-55 -26 -69 -28 -189 -28 -175 0 -247 22 -398 123 l-68 45 -72 -16 c-40 -10
-83 -17 -97 -17 -60 -1 -261 -64 -345 -110 -129 -69 -205 -133 -205 -172 0
-22 6 -29 28 -33 15 -3 50 -12 77 -20 28 -7 77 -19 110 -25 33 -7 76 -16 95
-20 19 -4 60 -13 90 -19 30 -6 59 -16 64 -21 6 -6 13 -36 17 -68 10 -83 30
-233 35 -259 5 -26 38 -31 63 -9 39 33 217 111 281 123 14 2 52 11 85 18 33 8
114 21 180 29 251 32 284 40 376 86 122 62 222 160 281 275 46 89 58 143 58
256 0 102 -1 106 -31 147 -21 28 -42 45 -67 52 -40 11 -38 11 -67 2z"/>
<path d="M12982 14149 c-21 -6 -41 -24 -59 -50 -24 -36 -28 -54 -31 -135 -7
-148 38 -271 140 -390 48 -56 160 -144 182 -144 5 0 17 -6 25 -13 30 -25 156
-56 291 -72 74 -9 167 -22 205 -31 39 -8 79 -14 90 -14 11 0 33 -7 49 -15 15
-8 36 -15 46 -15 27 0 150 -55 236 -105 58 -34 61 -28 84 165 10 85 25 168 31
174 2 2 49 13 104 25 117 25 256 58 335 80 41 11 36 39 -15 87 -84 77 -257
167 -375 194 -19 4 -48 13 -63 19 -16 6 -46 11 -69 11 -22 0 -71 7 -109 17
l-69 16 -38 -30 c-47 -38 -147 -89 -232 -120 -54 -19 -85 -23 -180 -23 -79 1
-128 6 -155 16 -22 9 -51 18 -64 21 -13 3 -49 31 -80 62 -45 43 -64 72 -86
129 -48 123 -106 166 -193 141z"/>
<path d="M9928 13688 c-35 -29 -68 -57 -74 -63 -6 -5 -35 -30 -64 -55 -30 -25
-90 -77 -134 -115 -45 -39 -121 -103 -169 -143 l-88 -72 -1189 0 c-789 0
-1191 -3 -1195 -10 -13 -21 8 -47 86 -105 128 -96 229 -174 335 -260 l99 -80
1008 -5 c555 -3 1017 -2 1029 3 20 7 82 58 238 197 127 113 177 152 193 148
15 -3 44 -27 201 -163 128 -111 196 -169 210 -177 6 -4 468 -8 1027 -8 l1016
0 75 58 c42 31 150 116 241 187 91 72 178 138 192 148 17 13 25 26 23 40 l-3
22 -1202 5 c-1163 5 -1203 6 -1225 24 -13 11 -54 47 -93 81 -38 34 -81 70 -94
81 -13 10 -31 26 -40 34 -9 9 -50 45 -91 80 -41 36 -77 67 -80 70 -30 30 -139
118 -152 123 -12 4 -37 -10 -80 -45z"/>
<path d="M6610 13000 c-57 -7 -167 -37 -185 -50 -5 -4 -21 -11 -35 -15 -59
-18 -188 -137 -232 -213 -65 -114 -85 -280 -49 -400 34 -111 87 -186 171 -245
73 -51 101 -63 182 -77 136 -23 264 15 345 103 56 61 71 93 79 169 16 156 -49
263 -184 303 -41 13 -54 12 -107 -1 -33 -9 -77 -25 -97 -36 -46 -26 -118 -121
-118 -157 0 -28 -34 -91 -49 -91 -25 0 -36 36 -36 119 1 74 5 94 28 139 54
103 123 155 250 189 67 17 69 17 153 -4 176 -46 284 -167 313 -353 14 -89 2
-212 -30 -305 -22 -65 -87 -189 -123 -233 -12 -15 -35 -47 -51 -71 -17 -25
-78 -94 -137 -155 -59 -61 -108 -117 -108 -123 0 -7 35 -48 78 -90 148 -148
286 -344 337 -478 47 -124 47 -137 54 -1290 7 -1136 8 -1158 52 -1380 39 -197
116 -429 149 -450 5 -3 10 -12 10 -20 0 -23 138 -248 190 -310 27 -32 50 -63
50 -69 0 -22 323 -327 435 -410 183 -136 183 -136 300 -215 232 -156 415 -303
573 -460 125 -123 190 -207 235 -302 26 -55 38 -71 62 -78 33 -10 658 -7 675
4 14 9 12 41 -3 57 -8 7 -20 25 -27 38 -47 90 -270 330 -400 432 -30 23 -57
45 -60 48 -3 3 -21 17 -40 30 -19 14 -39 28 -45 33 -16 13 -105 72 -179 119
-126 78 -160 99 -211 124 -27 14 -81 43 -120 65 -38 22 -97 54 -130 70 -60 29
-215 111 -308 162 -214 117 -422 303 -541 485 -117 180 -219 433 -246 609 -6
37 -16 95 -22 128 -8 42 -12 624 -13 1977 -2 1393 -6 1941 -14 2005 -15 107
-46 212 -83 276 -16 26 -28 51 -28 55 -1 19 -94 124 -156 176 -153 129 -355
190 -554 166z"/>
<path d="M13205 13000 c-210 -25 -395 -146 -512 -334 -66 -107 -88 -166 -113
-311 -19 -106 -20 -175 -20 -2005 0 -1196 -4 -1919 -10 -1960 -6 -36 -15 -98
-20 -137 -5 -40 -17 -96 -25 -125 -9 -29 -25 -82 -36 -118 -25 -85 -42 -126
-97 -235 -118 -234 -254 -393 -467 -543 -85 -61 -89 -63 -163 -104 -26 -14
-66 -36 -88 -48 -21 -13 -113 -61 -204 -108 -91 -47 -181 -96 -200 -109 -19
-12 -38 -23 -43 -23 -4 0 -55 -28 -112 -62 -58 -35 -113 -68 -123 -73 -52 -30
-234 -157 -278 -194 -17 -14 -51 -42 -75 -61 -83 -66 -256 -245 -317 -330 -34
-47 -71 -97 -82 -112 -25 -32 -26 -54 -2 -66 9 -5 167 -9 351 -8 l334 2 61
109 c55 98 77 126 211 261 83 83 170 167 195 187 107 86 180 140 250 189 41
28 101 71 132 95 31 24 59 43 62 43 3 0 25 15 49 33 24 17 54 40 68 49 280
200 499 403 606 564 26 38 50 71 54 74 30 20 187 318 228 432 37 105 91 337
91 393 0 22 8 78 17 125 15 76 17 201 19 1155 2 1028 3 1074 22 1160 21 96 70
226 96 254 9 10 16 21 16 24 0 4 27 44 59 90 58 81 165 202 244 275 36 34 37
36 21 59 -8 13 -34 41 -56 61 -85 76 -222 255 -312 407 -23 38 -55 141 -72
232 -17 89 -17 96 1 175 27 117 57 179 117 242 60 62 127 96 230 116 60 12 74
12 130 -5 121 -35 195 -95 244 -200 19 -40 24 -67 24 -130 0 -83 -9 -105 -41
-105 -17 0 -33 30 -45 85 -9 40 -55 106 -96 137 -32 24 -104 52 -161 61 -51 8
-128 -24 -178 -74 -77 -76 -99 -194 -57 -304 56 -147 219 -232 396 -206 263
39 432 289 377 559 -17 82 -58 175 -96 215 -10 11 -19 24 -19 27 0 23 -225
170 -259 170 -10 0 -36 6 -57 13 -49 18 -190 26 -269 17z"/>
<path d="M9898 12810 c-51 -44 -137 -118 -191 -165 l-99 -85 -977 0 c-747 0
-980 -3 -989 -12 -14 -14 -17 -3743 -3 -3998 12 -206 47 -394 98 -525 28 -72
31 -79 78 -175 59 -121 109 -193 210 -300 55 -60 198 -189 233 -211 15 -10 65
-46 112 -80 47 -34 110 -75 140 -92 83 -45 101 -56 155 -88 28 -16 88 -49 135
-73 47 -24 126 -68 175 -96 50 -29 101 -59 115 -66 14 -7 54 -33 90 -58 36
-25 97 -66 135 -92 159 -107 346 -276 563 -512 59 -63 111 -112 122 -112 10 0
57 43 106 97 103 113 271 283 329 334 91 80 204 168 272 213 40 27 78 55 84
62 6 8 15 14 19 14 5 0 45 23 89 50 44 28 84 50 88 50 5 0 28 14 53 30 25 17
94 56 155 87 60 30 121 64 134 74 13 11 27 19 32 19 13 0 170 94 263 157 298
205 505 439 596 673 11 30 27 69 35 87 8 17 15 36 15 43 0 7 7 35 16 64 31 97
34 113 45 197 5 46 15 102 21 124 16 54 24 4049 9 4088 l-11 27 -984 0 -984 0
-48 43 c-27 23 -76 67 -109 97 -33 30 -82 73 -109 95 -26 22 -61 52 -77 68
-16 15 -33 27 -38 27 -5 0 -52 -36 -103 -80z m189 -301 c71 -64 100 -87 182
-141 24 -17 88 -18 954 -18 l928 0 -4 -1942 c-3 -1807 -4 -1950 -21 -2038 -34
-186 -70 -302 -131 -419 -50 -97 -117 -190 -198 -278 -46 -48 -267 -227 -322
-260 -11 -7 -67 -41 -125 -76 -58 -35 -161 -94 -230 -130 -394 -207 -692 -386
-836 -504 -21 -18 -57 -46 -79 -63 -22 -18 -77 -67 -122 -111 -45 -43 -84 -79
-86 -79 -2 0 -44 38 -93 85 -90 87 -353 292 -435 340 -10 6 -65 38 -123 73
-57 34 -107 62 -110 62 -3 0 -21 10 -39 23 -19 13 -63 38 -98 56 -35 18 -84
44 -109 58 -25 13 -67 36 -95 50 -27 13 -61 31 -75 39 -14 8 -52 29 -85 46
-96 49 -333 209 -415 278 -74 64 -205 204 -246 264 -36 53 -111 192 -117 217
-3 13 -17 55 -31 93 -14 38 -28 90 -32 115 -3 25 -12 73 -20 106 -31 135 -35
414 -32 2205 l3 1785 935 5 935 5 50 37 c28 21 57 43 65 51 8 7 42 35 75 63
33 27 64 55 68 62 15 23 36 12 114 -59z"/>
<path d="M9207 11451 c-6 -2 -15 -9 -19 -15 -4 -6 -8 -180 -8 -387 0 -308 -3
-379 -14 -388 -10 -8 -123 -11 -397 -11 -358 1 -383 0 -393 -17 -7 -12 -11
-243 -12 -681 -1 -567 0 -665 13 -677 12 -13 77 -15 403 -15 246 0 391 -4 395
-10 3 -5 2 -17 -3 -26 -8 -14 -52 -15 -388 -14 -331 0 -382 -1 -401 -15 -26
-19 -30 -61 -9 -90 13 -18 33 -19 401 -20 322 -1 388 -4 396 -16 5 -8 9 -145
9 -305 0 -212 3 -293 12 -302 19 -19 1441 -17 1457 1 7 10 12 136 13 403 l3
389 390 5 390 5 3 684 c1 408 -2 689 -7 694 -5 5 -133 9 -298 8 -237 -2 -292
1 -301 12 -8 10 -13 126 -14 398 l-3 383 -32 9 c-25 8 -38 6 -58 -7 l-25 -16
-2 -388 c-3 -379 -3 -387 -23 -387 -20 0 -20 8 -23 386 -2 311 -5 389 -16 398
-10 8 -214 12 -720 14 -388 1 -712 0 -719 -2z m918 -465 c11 -8 16 -19 12 -30
-6 -14 -30 -16 -199 -16 -106 0 -200 -5 -208 -10 -13 -8 -15 -63 -15 -395 0
-332 -2 -387 -15 -395 -9 -6 -177 -10 -406 -10 -313 0 -394 -3 -403 -13 -6 -9
-12 -84 -13 -203 l-3 -189 -24 0 -23 0 1 225 c1 146 6 227 13 231 5 4 184 5
397 4 219 -1 394 1 404 7 16 8 17 37 17 398 0 215 1 391 3 392 1 1 99 5 217 8
118 3 218 7 221 8 3 1 14 -4 24 -12z m3 -178 c9 -9 12 -90 12 -304 0 -276 1
-294 19 -306 15 -11 101 -13 418 -11 219 1 404 -2 412 -6 7 -5 11 -17 9 -27
-3 -18 -22 -19 -426 -24 -350 -4 -424 -7 -431 -19 -9 -13 -4 -80 6 -91 3 -3
194 -7 426 -10 l422 -5 0 -140 0 -140 -414 -3 c-286 -1 -418 -6 -428 -13 -10
-9 -13 -87 -13 -399 0 -214 -3 -395 -6 -404 -5 -13 -27 -16 -138 -16 -89 0
-136 4 -144 12 -9 9 -12 112 -12 403 0 291 -3 394 -12 403 -17 17 -83 15 -98
-3 -9 -11 -13 -113 -14 -412 -1 -381 -2 -398 -20 -401 -10 -2 -22 2 -27 10 -5
7 -9 192 -9 411 0 218 -1 398 -2 399 -2 1 -149 5 -328 8 l-325 5 -1 125 c0 69
1 133 3 143 4 16 32 17 407 17 371 0 404 1 418 18 13 15 15 71 16 396 0 307 3
380 13 387 22 14 253 11 267 -3z"/>
<path d="M11545 10641 l-30 -6 -5 -710 c-3 -391 -6 -711 -8 -712 -1 -2 -173
-3 -381 -3 -332 0 -382 -2 -395 -16 -14 -13 -16 -63 -16 -392 0 -207 -4 -383
-8 -390 -7 -10 -156 -13 -748 -12 -583 0 -743 -2 -757 -12 -25 -19 -26 -87 -2
-105 16 -11 156 -13 808 -13 513 0 796 4 808 11 18 9 19 27 19 390 0 220 4
388 9 398 9 16 38 18 390 19 209 0 385 3 391 7 13 8 14 1493 0 1529 -10 27
-20 29 -75 17z"/>
<path d="M5895 8487 c-61 -25 -92 -47 -160 -117 -79 -80 -113 -99 -200 -107
-47 -4 -77 0 -140 20 -172 54 -193 55 -297 15 -44 -17 -36 -44 20 -63 96 -34
157 -58 172 -69 8 -6 31 -20 50 -30 51 -29 157 -116 221 -182 79 -83 152 -184
264 -364 61 -97 155 -279 210 -405 73 -168 142 -285 232 -392 142 -170 355
-345 526 -433 26 -14 47 -28 47 -32 0 -5 9 -8 19 -8 11 0 22 -4 26 -9 13 -22
223 -101 385 -145 70 -20 328 -44 540 -51 91 -3 192 -10 225 -16 33 -6 79 -14
103 -18 23 -3 43 -10 43 -16 0 -5 -28 -19 -63 -31 -94 -32 -136 -59 -206 -133
-82 -87 -119 -161 -164 -336 -16 -62 -4 -291 17 -340 70 -161 102 -210 187
-296 56 -57 171 -139 194 -139 4 0 15 -6 23 -14 14 -12 69 -35 171 -71 131
-47 361 -58 520 -25 142 29 185 44 295 100 89 46 105 51 142 45 24 -3 45 -10
48 -15 3 -4 39 -27 80 -50 42 -22 103 -58 135 -80 69 -44 280 -219 280 -231 0
-5 70 -9 156 -9 l156 0 70 65 c83 76 192 159 263 199 28 16 57 35 65 42 28 24
159 84 184 84 14 0 63 -21 110 -46 107 -56 174 -80 301 -104 303 -60 639 21
866 206 100 82 205 243 240 369 21 76 19 285 -4 360 -35 114 -62 170 -114 242
-74 101 -117 130 -278 188 -40 15 -46 20 -30 25 52 19 213 41 335 46 74 2 173
7 220 9 127 6 333 31 355 42 11 6 37 13 57 16 61 9 257 86 358 139 370 197
668 498 799 808 35 82 166 348 198 402 15 25 43 73 62 105 58 100 195 275 282
359 119 115 250 197 367 230 110 31 107 62 -11 90 l-72 16 -118 -37 c-107 -34
-126 -37 -187 -31 -86 8 -124 29 -218 122 -93 94 -143 114 -277 114 -156 0
-255 -52 -357 -188 -45 -59 -100 -158 -113 -202 -4 -14 -20 -52 -35 -85 -15
-33 -50 -118 -79 -190 -116 -286 -218 -487 -350 -684 -139 -210 -399 -410
-711 -547 -129 -56 -161 -70 -202 -88 -18 -8 -87 -31 -153 -51 -327 -102 -467
-175 -657 -347 -82 -73 -178 -228 -178 -285 0 -36 25 -78 55 -91 55 -25 86
-16 170 53 113 92 152 109 250 109 104 0 157 -21 234 -92 34 -32 61 -61 61
-66 0 -5 6 -17 14 -25 26 -30 51 -134 51 -211 0 -206 -126 -362 -355 -441 -91
-31 -237 -31 -335 0 -147 46 -279 150 -325 254 -12 29 -28 64 -36 78 -22 43
-29 235 -11 288 23 64 17 71 -67 71 -1043 3 -1751 -2 -1762 -11 -11 -9 -10
-17 3 -43 14 -24 17 -55 16 -136 -2 -204 -75 -334 -251 -447 -192 -124 -491
-96 -671 61 -99 86 -151 198 -151 327 0 67 30 179 56 210 8 8 14 22 15 30 0 8
27 37 59 65 116 100 242 119 366 57 34 -17 70 -39 81 -49 10 -11 39 -36 64
-56 38 -32 54 -38 92 -38 38 0 49 5 71 31 30 35 34 89 12 143 -45 108 -184
258 -326 352 -65 43 -268 144 -289 144 -6 0 -25 6 -43 14 -18 8 -87 31 -153
52 -120 36 -177 57 -270 99 -27 12 -79 35 -115 51 -36 16 -83 39 -105 51 -22
12 -62 34 -90 49 -204 109 -385 277 -518 480 -88 136 -200 349 -263 501 -20
49 -45 108 -56 133 -12 25 -24 54 -29 65 -4 11 -20 49 -35 85 -15 36 -38 94
-50 129 -35 94 -127 234 -187 284 -29 24 -77 56 -107 72 -51 27 -64 30 -170
32 -73 2 -126 -2 -145 -10z m8045 -252 c0 -9 -11 -28 -25 -43 -37 -40 -41 -63
-15 -84 32 -26 46 -23 77 20 61 82 90 66 34 -19 -28 -41 -29 -45 -13 -62 30
-34 51 -40 78 -22 13 8 24 21 24 28 1 19 37 57 54 57 24 0 19 -23 -11 -63 -16
-20 -36 -48 -46 -62 -10 -14 -24 -25 -31 -25 -7 0 -56 28 -108 63 -52 35 -102
67 -111 70 -26 10 -20 45 15 91 49 64 78 83 78 51z m-7819 -39 c-6 -6 -53 -36
-105 -66 -64 -37 -95 -61 -96 -73 0 -10 11 -35 25 -55 28 -41 32 -62 11 -62
-15 0 -96 104 -96 124 0 19 24 37 140 104 78 46 107 58 117 50 9 -7 10 -14 4
-22z m7661 -192 c-1 -10 -5 -33 -8 -51 -6 -29 -3 -34 22 -45 16 -7 56 -29 89
-48 33 -20 68 -39 78 -43 17 -6 25 -57 9 -57 -5 0 -53 27 -108 60 -54 33 -107
60 -116 60 -10 0 -24 -13 -33 -30 -16 -31 -45 -41 -45 -16 0 38 88 199 105
192 5 -2 9 -12 7 -22z m-7434 -181 c2 -16 -14 -43 -51 -87 -30 -35 -69 -85
-87 -110 -35 -48 -70 -61 -70 -27 0 10 7 24 15 31 23 19 18 59 -12 104 -35 52
-41 56 -79 56 -34 0 -51 22 -30 39 12 10 119 18 241 17 65 -1 70 -3 73 -23z
m7387 -114 c86 -40 113 -63 126 -109 11 -35 9 -43 -14 -83 -14 -24 -33 -50
-43 -57 -23 -20 -94 -14 -146 11 -117 58 -128 65 -128 81 0 19 29 25 46 8 14
-14 154 -70 175 -70 25 0 66 40 73 72 9 42 -46 84 -176 137 -18 7 -28 18 -28
32 0 26 22 22 115 -22z m-7252 -137 c24 -26 67 -124 67 -151 0 -39 -37 -71
-82 -71 -34 0 -39 -4 -52 -34 -18 -42 -63 -57 -102 -32 -28 19 -84 103 -84
128 0 9 -4 20 -10 23 -25 15 -4 36 68 70 42 21 84 41 92 46 22 14 74 38 81 39
3 0 13 -8 22 -18z m7022 -170 c0 -52 -4 -50 168 -121 45 -19 60 -42 36 -56 -5
-4 -27 1 -47 10 -20 9 -57 26 -82 37 -25 11 -53 24 -62 29 -30 15 -46 10 -70
-21 -21 -28 -48 -40 -48 -21 0 20 91 203 98 196 4 -4 7 -28 7 -53z m-6834
-198 c117 -109 50 -284 -108 -284 -76 0 -153 81 -153 163 0 46 17 77 64 117
42 36 55 40 114 36 42 -2 59 -9 83 -32z m6752 -59 c9 -8 18 -29 22 -45 8 -36
40 -52 95 -49 59 3 70 0 70 -21 0 -18 -7 -20 -84 -20 -66 0 -88 -4 -106 -18
-35 -28 -21 -63 35 -91 29 -15 45 -29 45 -41 0 -35 -20 -32 -88 11 -37 23 -95
60 -130 82 l-63 40 17 25 c9 14 26 41 37 61 36 64 57 81 98 81 21 0 44 -7 52
-15z m-6485 -259 c71 -74 78 -103 35 -148 -20 -21 -36 -28 -65 -28 -34 0 -40
-4 -58 -40 -11 -21 -20 -51 -20 -65 0 -29 -24 -34 -38 -8 -7 11 -6 27 3 47 29
72 34 97 23 122 -19 42 -54 42 -97 0 -41 -40 -56 -44 -66 -19 -4 13 3 27 27
47 18 16 64 58 101 93 38 34 74 63 81 63 7 0 41 -29 74 -64z m6328 -77 c58
-50 103 -96 101 -103 -9 -26 -45 -15 -97 31 -124 109 -143 130 -137 147 4 9
11 16 17 16 7 0 59 -41 116 -91z m-167 -147 c46 -139 47 -144 25 -163 -13 -11
-23 -9 -64 14 -113 64 -235 146 -235 158 0 34 56 16 135 -43 67 -50 98 -66
109 -55 14 14 14 23 -3 60 -37 80 -56 150 -44 164 18 23 31 0 77 -135z m-5903
16 c31 -20 54 -40 54 -50 0 -25 -18 -22 -62 8 -37 26 -39 26 -58 9 -23 -20
-26 -57 -7 -73 6 -6 25 -14 40 -17 32 -8 43 -23 29 -37 -7 -7 -26 -3 -58 11
-44 20 -48 20 -66 5 -10 -10 -18 -29 -18 -43 0 -21 10 -32 50 -53 52 -29 64
-48 30 -48 -31 0 -150 60 -150 75 0 14 83 161 122 218 11 15 24 27 30 27 5 0
34 -15 64 -32z m5440 -110 c4 -6 -4 -19 -19 -30 -15 -11 -27 -25 -27 -33 0
-13 26 -77 60 -149 10 -21 16 -44 13 -52 -14 -37 -43 1 -79 103 l-29 82 -45 3
c-25 2 -43 7 -41 13 2 6 31 20 65 33 33 13 63 27 64 32 5 14 29 12 38 -2z
m-278 -105 c-2 -10 -16 -20 -34 -24 -44 -9 -54 -17 -54 -45 0 -31 22 -40 66
-26 19 5 36 6 39 2 6 -10 -10 -21 -50 -35 -31 -11 -36 -30 -20 -67 5 -14 2
-18 -13 -18 -21 0 -32 18 -32 53 0 12 -7 42 -15 66 -18 49 -12 81 15 81 10 0
33 7 51 15 44 19 51 18 47 -2z m52 -198 c0 -10 -10 -15 -30 -15 -16 0 -30 4
-30 9 0 8 10 12 53 20 4 0 7 -6 7 -14z m-2260 -774 c90 -61 95 -280 9 -357
-46 -42 -124 -39 -169 6 -44 44 -64 183 -38 270 27 92 124 132 198 81z m-645
-3 c3 -13 4 -102 3 -198 l-3 -175 -25 0 -25 0 -3 185 c-1 101 0 190 2 197 9
22 45 15 51 -9z m353 1 c3 -18 -47 -153 -99 -266 -17 -37 -35 -78 -40 -90 -6
-17 -17 -23 -39 -23 -19 0 -30 5 -30 14 0 8 20 58 45 111 100 212 101 229 11
219 -41 -5 -55 -3 -65 10 -11 13 -11 19 -1 31 19 23 213 17 218 -6z m669 2
c48 -40 63 -81 63 -174 0 -98 -18 -148 -66 -186 -53 -42 -189 -16 -171 33 7
18 52 22 62 6 3 -5 19 -10 35 -10 37 0 70 35 70 73 0 29 -1 29 -43 23 -57 -9
-90 5 -120 48 -42 63 -16 171 47 196 37 15 100 11 123 -9z"/>
<path d="M6190 7807 c-34 -17 -36 -39 -6 -73 l24 -29 27 25 c39 36 49 58 34
76 -14 17 -46 18 -79 1z"/>
<path d="M6406 7515 c-21 -22 -20 -37 5 -79 24 -41 49 -52 80 -36 23 13 22 45
-4 99 -15 31 -57 40 -81 16z"/>
<path d="M6292 7455 c-29 -25 -30 -27 -17 -58 13 -32 62 -87 76 -87 14 0 49
43 48 59 -1 29 -44 106 -60 109 -9 2 -30 -9 -47 -23z"/>
<path d="M6512 7179 c-80 -52 -81 -143 -2 -206 44 -35 134 0 173 68 l21 35
-22 45 c-37 76 -105 99 -170 58z"/>
<path d="M13316 7083 c-37 -57 -36 -73 3 -96 l34 -20 28 34 c39 46 46 75 24
99 -29 32 -61 25 -89 -17z"/>
<path d="M6835 6875 c-14 -13 -25 -29 -25 -35 0 -14 78 -90 91 -90 26 0 49 23
49 48 0 28 -58 102 -80 102 -6 0 -22 -11 -35 -25z"/>
<path d="M10040 5443 c-27 -25 -32 -36 -37 -100 -8 -95 9 -159 48 -178 62 -33
109 26 109 136 0 82 -21 142 -56 158 -32 14 -29 15 -64 -16z"/>
<path d="M10420 5440 c-30 -30 -35 -64 -14 -99 24 -40 40 -45 83 -24 34 17 36
20 34 63 -3 71 -59 104 -103 60z"/>
<path d="M4914 8166 c-54 -25 -111 -84 -121 -126 -3 -14 -10 -31 -16 -38 -16
-20 -10 -163 9 -229 63 -218 236 -401 624 -658 272 -180 368 -314 363 -505 -1
-45 -8 -88 -17 -105 -9 -17 -16 -40 -16 -52 0 -50 12 -40 332 290 68 70 76 89
52 125 -33 49 -49 80 -139 267 -62 129 -125 266 -125 272 0 10 -96 163 -159
255 -133 192 -328 386 -465 462 -128 71 -230 85 -322 42z"/>
<path d="M14885 8174 c-160 -58 -326 -193 -482 -389 -85 -107 -159 -210 -175
-245 -7 -14 -17 -32 -24 -40 -14 -17 -50 -89 -90 -175 -15 -33 -47 -103 -72
-155 -24 -52 -53 -115 -64 -140 -11 -25 -35 -68 -54 -96 -18 -29 -38 -64 -44
-79 -12 -33 -5 -46 66 -120 298 -311 324 -334 324 -285 0 11 -7 37 -16 58 -18
44 -20 176 -3 230 40 132 103 205 280 329 79 55 158 109 174 119 47 29 195
143 245 188 123 112 236 268 261 361 6 22 15 51 20 65 15 40 13 163 -2 216
-18 62 -97 145 -155 162 -55 16 -139 14 -189 -4z"/>
<path d="M4613 7063 c-21 -8 -15 -50 10 -70 12 -10 58 -59 102 -108 44 -50 83
-92 86 -95 3 -3 32 -34 63 -70 50 -58 70 -100 48 -100 -4 0 -51 -35 -104 -77
-53 -43 -130 -104 -172 -137 -42 -32 -76 -62 -76 -67 0 -25 39 -29 505 -49
326 -14 404 -5 506 60 143 92 175 268 83 450 -20 39 -17 35 -93 114 -30 31
-59 56 -64 56 -6 0 -20 8 -31 19 -36 32 -104 40 -401 51 -269 9 -361 15 -425
25 -14 2 -31 1 -37 -2z"/>
<path d="M15320 7060 c-14 -5 -171 -13 -350 -20 -182 -6 -345 -16 -370 -23
-74 -20 -181 -108 -248 -204 -23 -34 -62 -161 -62 -203 0 -47 31 -145 58 -184
33 -48 111 -101 177 -120 101 -29 164 -29 780 1 101 5 135 13 135 33 0 4 -26
27 -57 51 -124 92 -295 231 -300 244 -2 8 23 46 58 87 113 132 183 211 227
252 71 69 45 117 -48 86z"/>
<path d="M9715 4228 c-3 -7 -58 -161 -124 -343 l-119 -330 -56 -3 -56 -3 2
283 3 283 25 3 c43 6 52 28 28 73 l-20 40 -120 -3 -121 -3 -65 -218 -66 -218
-54 183 c-30 101 -62 192 -72 203 -9 11 -20 28 -23 38 -6 16 -19 17 -124 15
-114 -3 -118 -4 -121 -26 -4 -24 43 -82 65 -82 10 0 13 -63 13 -284 l0 -285
-37 -3 c-50 -4 -56 -36 -16 -78 27 -29 31 -30 120 -30 76 0 94 3 101 17 14 23
-23 93 -49 93 -18 0 -19 10 -19 188 0 111 4 181 9 172 5 -8 34 -105 65 -215
49 -173 61 -204 87 -228 48 -44 62 -29 113 136 24 78 56 178 70 222 l25 80 1
-177 0 -177 -37 -3 c-50 -4 -56 -36 -16 -78 l28 -30 241 0 c285 0 285 0 240
79 -8 13 -20 27 -27 31 -10 6 -7 22 10 72 13 34 30 69 39 76 9 6 43 12 78 12
l63 0 20 -55 c38 -102 38 -103 -6 -107 -33 -3 -38 -6 -41 -31 -3 -22 1 -30 16
-34 11 -3 22 -14 25 -24 5 -18 14 -19 149 -17 129 3 143 5 146 21 6 33 -26 85
-54 89 -25 3 -32 21 -133 303 -60 165 -121 319 -136 343 -28 41 -61 55 -70 30z
m24 -340 c25 -68 25 -68 -13 -68 l-35 0 16 45 c8 25 17 45 19 45 3 0 8 -10 13
-22z"/>
<path d="M10074 4218 c-4 -6 -10 -58 -12 -115 -4 -97 -3 -104 19 -128 42 -44
63 -34 93 46 19 53 50 84 89 91 l27 5 0 -283 0 -283 -42 -3 c-36 -2 -44 -7
-46 -26 -2 -14 7 -33 25 -52 l28 -30 136 0 c112 0 139 3 150 16 10 12 10 19 1
32 -7 10 -16 27 -22 40 -5 12 -18 22 -30 22 -20 0 -20 4 -18 283 l3 282 30 -3
c49 -6 74 -28 81 -71 8 -50 53 -96 83 -86 19 6 21 14 21 104 0 78 -3 101 -16
112 -9 7 -20 23 -25 36 l-9 23 -279 0 c-205 0 -282 -3 -287 -12z"/>
<path d="M10687 4223 c-23 -23 28 -103 65 -103 17 0 18 -20 18 -284 l0 -285
-42 -3 c-36 -2 -44 -7 -46 -26 -2 -14 7 -33 25 -52 l28 -30 136 0 c112 0 139
3 150 16 10 12 10 19 1 32 -7 10 -16 27 -22 40 -5 12 -18 22 -30 22 -20 0 -21
5 -18 118 l3 117 108 3 107 3 0 -120 0 -120 -36 -3 c-57 -5 -65 -29 -24 -72
l35 -36 137 0 c118 0 138 2 146 17 14 23 -23 93 -49 93 -19 0 -19 10 -17 283
l3 282 25 3 c43 6 52 28 28 73 l-20 40 -151 -3 c-128 -3 -151 -5 -160 -20 -9
-13 -4 -24 23 -52 19 -20 41 -36 48 -36 9 0 12 -29 12 -110 l0 -110 -110 0
-111 0 3 107 3 108 29 5 c39 7 55 33 35 57 -9 10 -19 26 -22 36 -6 15 -22 17
-155 17 -82 0 -152 -3 -155 -7z"/>
</g>
</svg>
